<svg xmlns="http://www.w3.org/2000/svg" version="1.1" xmlns:xlink="http://www.w3.org/1999/xlink" xmlns:svgjs="http://svgjs.com/svgjs" width="1440" height="560" preserveAspectRatio="none" viewBox="0 0 1440 560"><g mask="url(&quot;#SvgjsMask1144&quot;)" fill="none"><rect width="1440" height="560" x="0" y="0" fill="url(#SvgjsLinearGradient1145)"></rect><g transform="translate(0, 0)" stroke-linecap="round"><path d="M264 196.73 L264 363.27" stroke-width="36" stroke="rgba(219, 16, 14, 1)"></path><path d="M312 215.19 L312 344.81" stroke-width="36" stroke="rgba(105, 173, 247, 1)"></path><path d="M360 144.69 L360 415.31" stroke-width="36" stroke="rgba(219, 16, 14, 1)"></path><path d="M408 140.94 L408 419.06" stroke-width="36" stroke="rgba(219, 16, 14, 1)"></path><path d="M456 258.81 L456 301.19" stroke-width="36" stroke="rgba(219, 16, 14, 1)"></path><path d="M504 241.43 L504 318.57" stroke-width="36" stroke="rgba(105, 173, 247, 1)"></path><path d="M552 135.42 L552 424.58" stroke-width="36" stroke="rgba(219, 16, 14, 1)"></path><path d="M600 226.48 L600 333.52" stroke-width="36" stroke="rgba(219, 16, 14, 1)"></path><path d="M648 155.88 L648 404.12" stroke-width="36" stroke="rgba(105, 173, 247, 1)"></path><path d="M696 170.04 L696 389.96" stroke-width="36" stroke="rgba(105, 173, 247, 1)"></path><path d="M744 120.12 L744 439.88" stroke-width="36" stroke="rgba(105, 173, 247, 1)"></path><path d="M792 138.41 L792 421.59" stroke-width="36" stroke="rgba(219, 16, 14, 1)"></path><path d="M840 141.66 L840 418.34" stroke-width="36" stroke="rgba(219, 16, 14, 1)"></path><path d="M888 111.28 L888 448.73" stroke-width="36" stroke="rgba(219, 16, 14, 1)"></path><path d="M936 246.87 L936 313.13" stroke-width="36" stroke="rgba(105, 173, 247, 1)"></path><path d="M984 250.36 L984 309.64" stroke-width="36" stroke="rgba(105, 173, 247, 1)"></path><path d="M1032 176.02 L1032 383.98" stroke-width="36" stroke="rgba(105, 173, 247, 1)"></path><path d="M1080 253.25 L1080 306.75" stroke-width="36" stroke="rgba(105, 173, 247, 1)"></path><path d="M1128 151.15 L1128 408.86" stroke-width="36" stroke="rgba(219, 16, 14, 1)"></path><path d="M1176 205.38 L1176 354.62" stroke-width="36" stroke="rgba(219, 16, 14, 1)"></path></g></g><defs><mask id="SvgjsMask1144"><rect width="1440" height="560" fill="#ffffff"></rect></mask><linearGradient x1="100%" y1="50%" x2="0%" y2="50%" gradientUnits="userSpaceOnUse" id="SvgjsLinearGradient1145"><stop stop-color="#0e2a47" offset="0"></stop><stop stop-color="#00459e" offset="1"></stop></linearGradient></defs></svg>