<?xml version="1.0" standalone="no"?><svg xmlns="http://www.w3.org/2000/svg" viewBox="0 0 1440 320"><path fill="#3ED8FA" fill-opacity="1" d="M0,160L26.7,176C53.3,192,107,224,160,234.7C213.3,245,267,235,320,192C373.3,149,427,75,480,85.3C533.3,96,587,192,640,245.3C693.3,299,747,309,800,277.3C853.3,245,907,171,960,160C1013.3,149,1067,203,1120,197.3C1173.3,192,1227,128,1280,128C1333.3,128,1387,192,1413,224L1440,256L1440,0L1413.3,0C1386.7,0,1333,0,1280,0C1226.7,0,1173,0,1120,0C1066.7,0,1013,0,960,0C906.7,0,853,0,800,0C746.7,0,693,0,640,0C586.7,0,533,0,480,0C426.7,0,373,0,320,0C266.7,0,213,0,160,0C106.7,0,53,0,27,0L0,0Z"></path></svg>